<?xml version="1.0" encoding="UTF-8"?>
<svg id="Capa_1" xmlns="http://www.w3.org/2000/svg" version="1.1" viewBox="0 0 841.89 595.28">
  <!-- Generator: Adobe Illustrator 29.4.0, SVG Export Plug-In . SVG Version: 2.1.0 Build 152)  -->
  <defs>
    <style>
      .st0 {
        fill: #fff;
      }
    </style>
  </defs>
  <polygon class="st0" points="661.71 299.61 590.85 318.44 512.03 447.84 328.37 332.27 283.37 361.47 531.63 515.68 661.71 299.61"/>
  <polygon class="st0" points="292.93 515.23 387.44 454.36 387.41 454.35 292.93 515.23"/>
  <polygon class="st0" points="271.7 377.33 254.48 348.04 434.67 229.48 434.67 160.16 288.09 255.94 180.18 326.51 292.93 515.23 309.7 441.96 276.46 385.43 271.7 377.33"/>
  <path class="st0" d="M347.56,119.56h124.71l1.39,260.81,43.47,26.4,13.03-24.67-1.48-318.95h-240.09c43.8,40.64,56.24,53.1,58.97,56.41h0Z"/>
  <path class="st0" d="M346.44,119.56s3.1,2.4,1.12,0c-2.74-3.31-15.18-15.77-58.97-56.41v163.8l57.85-37.8v-69.59Z"/>
  <polygon class="st0" points="553.93 232.56 553.93 293.82 590.85 318.44 661.71 299.61 553.93 232.56"/>
  <polygon class="st0" points="338.89 424.21 309.7 441.96 292.93 515.23 387.41 454.35 338.89 424.21"/>
</svg>